<?xml version="1.0" encoding="utf-8"?>
<!-- Generator: Adobe Illustrator 21.1.0, SVG Export Plug-In . SVG Version: 6.00 Build 0)  -->
<svg version="1.1" id="Слой_1" xmlns="http://www.w3.org/2000/svg" xmlns:xlink="http://www.w3.org/1999/xlink" x="0px" y="0px"
	 viewBox="0 0 41.8 59.8" style="enable-background:new 0 0 41.8 59.8;" xml:space="preserve">
<style type="text/css">
	.st0{fill:none;stroke:#1D73B2;stroke-width:3;stroke-miterlimit:10;}
	.st1{fill:#FFFFFF;stroke:#1D73B2;stroke-width:3;stroke-miterlimit:10;}
	.st2{fill:none;stroke:#1D73B2;stroke-miterlimit:10;}
	.st3{fill:#1D73B2;}
	.st4{fill:#FFFFFF;}
	.st5{font-family:'OCRB10PitchBT-Regular';}
	.st6{font-size:69.4087px;}
</style>
<g>
	<circle class="st0" cx="323.3" cy="29.9" r="37.5"/>
	<path class="st1" d="M343.5,6.2c-3.9,4-8.6,9.6-12.7,17c-7.3,13.3-9.2,25.8-9.7,33.3"/>
	<path class="st1" d="M296.8,22.9c2.7,1.8,6.1,4.3,9.5,7.9c0.7,0.7,3.1,3.2,5.5,6.5c5.2,7.1,7.9,14.6,9.3,20"/>
</g>
<g>
	<path class="st0" d="M191.2,28L191.2,28c-5-5-11.8-8.1-19.5-8.1c-7.6,0-14.5,3.1-19.4,8.1"/>
	<path class="st0" d="M145.2,20.9c6.8-6.8,16.2-11,26.5-11c10.4,0,19.7,4.2,26.5,11"/>
	<path class="st0" d="M183.7,34.7c-6.8-6.4-17.7-6.2-24.4,0.4"/>
	<path class="st0" d="M152.3,28c5-5,11.8-8.1,19.4-8.1c7.6,0,14.5,3.1,19.4,8.1"/>
	<path class="st0" d="M174.3,47.4c0,1.5-1.2,2.6-2.7,2.5c-1.1-0.1-2-0.9-2.2-1.9c-0.2-0.9,0.1-1.8,0.7-2.3c0.5-0.5,1.1-0.7,1.8-0.7
		c0.7,0,1.3,0.3,1.8,0.7S174.3,46.7,174.3,47.4z"/>
	<path class="st2" d="M192.2,16"/>
	<path class="st2" d="M171.8,47.4"/>
	<line class="st2" x1="171.8" y1="47.4" x2="170" y2="45.7"/>
	<line class="st2" x1="173.5" y1="45.7" x2="171.8" y2="47.4"/>
</g>
<g>
	<g>
		<path class="st3" d="M171.6,50.4c3.2,0,3.2-5,0-5C168.4,45.4,168.4,50.4,171.6,50.4L171.6,50.4z"/>
	</g>
</g>
<g>
	<g>
		<path class="st3" d="M171.7,50.2c3.2,0,3.2-5,0-5C168.4,45.2,168.4,50.2,171.7,50.2L171.7,50.2z"/>
	</g>
</g>
<g>
	<g>
		<path class="st4" d="M196.6,34.9c0.2-0.9,0.2-1.7-0.1-2.5c-0.1-0.3-0.3-0.7-0.6-0.9c-0.2-0.3-0.7-1-0.3-0.1c0,0.4,0,0.9,0,1.3
			c-0.3,0.8-0.3,0.6,0.2,0c0.3-0.3,0.5-0.7,0.6-1.1c0.3-0.9,0.2-2-0.4-2.8c-0.6-0.8-1.6-1.2-2.6-1.1c-0.4,0.1-0.9,0.2-1.3,0.4
			c-0.1,0.1-0.2,0.2-0.3,0.2c-0.8,0.5-0.7,0.5,0.3,0c0.2,1.6,0.4,3.3,0.7,4.9c0.8-0.1,1.5-0.7,1.8-1.4c-1.5-0.2-3-0.4-4.6-0.6
			c0.1,0.4,0.3,0.8,0.5,1.2c0.9,1.5,3.4,1.7,4.3,0c0.7-1.4,0.7-2.9-0.6-3.9c-1-0.9-2.5-1-3.5,0c-2.2,2.3,0.3,5.1,1.8,6.9
			c1.8,2.1,3.7,4.1,6,5.7c2.7,1.8,5.2-2.5,2.5-4.3c-1.3-0.9-2.4-2-3.5-3.2c-0.5-0.6-1-1.1-1.5-1.7c-0.2-0.3-1.2-1.2-1.3-1.5
			c-0.2,0.6-0.5,1.2-0.7,1.8c0.1-0.1,0.1-0.1,0.2-0.2c-1.2,0-2.4,0-3.5,0c-0.1-0.2-0.2-0.3-0.3-0.5c0.1-0.6,0.2-1.3,0.3-1.9
			c-0.1,0.1-0.1,0.2-0.2,0.3c1.4,0,2.9,0,4.3,0c0,0,0,0,0,0c-0.5-1.9-3.7-2.6-4.6-0.6c0,0.1-0.1,0.2-0.1,0.2c0.5-0.4,1-0.8,1.5-1.1
			c-0.1,0-0.2,0-0.2,0c-1.2,0.2-1.9,1.6-1.8,2.7c0.2,1.3,1.2,2,2.5,2.2c0.6,0.1,1.1,0,1.6-0.3c0.2-0.1,1.3-0.7,0.7-0.5
			c-0.4,0-0.9,0-1.3,0c0.1,0,0.2,0.1,0.3,0.1c-0.6-0.6-1.2-1.2-1.7-1.7c0,0.1,0.1,0.2,0.1,0.3c0-0.4,0-0.9,0-1.3
			c0.3-1,0.1-0.4-0.2,0c-0.4,0.5-0.7,1.1-0.8,1.7c-0.1,0.6,0,1.1,0.3,1.7c0.2,0.3,0.8,0.8,0.8,1.1c0-0.4,0-0.9,0-1.3
			c0,0.1-0.1,0.3-0.1,0.4C191,36.7,195.8,38,196.6,34.9L196.6,34.9z"/>
	</g>
</g>
<text transform="matrix(1 0 0 1 0 51.6196)" class="st3 st5 st6">$</text>
</svg>
