<?xml version="1.0" encoding="utf-8"?>
<!-- Generator: Adobe Illustrator 21.1.0, SVG Export Plug-In . SVG Version: 6.00 Build 0)  -->
<svg version="1.1" id="Слой_1" xmlns="http://www.w3.org/2000/svg" xmlns:xlink="http://www.w3.org/1999/xlink" x="0px" y="0px"
	 viewBox="0 0 55.2 43" style="enable-background:new 0 0 55.2 43;" xml:space="preserve">
<style type="text/css">
	.st0{fill:none;stroke:#000000;stroke-miterlimit:10;}
	.st1{fill:none;stroke:#1D73B2;stroke-width:3;stroke-miterlimit:10;}
	.st2{fill:#FFFFFF;stroke:#1D73B2;stroke-width:3;stroke-miterlimit:10;}
	.st3{fill:none;stroke:#1D73B2;stroke-miterlimit:10;}
	.st4{fill:#1D73B2;}
	.st5{fill:#FFFFFF;}
</style>
<rect x="-161.5" y="-16" class="st0" width="75" height="75"/>
<g>
	<circle class="st1" cx="179.1" cy="21.5" r="37.5"/>
	<path class="st2" d="M199.3-2.2c-3.9,4-8.6,9.6-12.7,17c-7.3,13.3-9.2,25.8-9.7,33.3"/>
	<path class="st2" d="M152.6,14.5c2.7,1.8,6.1,4.3,9.5,7.9c0.7,0.7,3.1,3.2,5.5,6.5c5.2,7.1,7.9,14.6,9.3,20"/>
</g>
<g>
	<path class="st1" d="M47,19.6L47,19.6c-5-5-11.8-8.1-19.5-8.1c-7.6,0-14.5,3.1-19.4,8.1"/>
	<path class="st1" d="M1.1,12.5c6.8-6.8,16.2-11,26.5-11c10.4,0,19.7,4.2,26.5,11"/>
	<path class="st1" d="M39.6,26.3c-6.8-6.4-17.7-6.2-24.4,0.4"/>
	<path class="st1" d="M8.1,19.6c5-5,11.8-8.1,19.4-8.1c7.6,0,14.5,3.1,19.4,8.1"/>
	<path class="st1" d="M30.1,39c0,1.5-1.2,2.6-2.7,2.5c-1.1-0.1-2-0.9-2.2-1.9c-0.2-0.9,0.1-1.8,0.7-2.3c0.5-0.5,1.1-0.7,1.8-0.7
		c0.7,0,1.3,0.3,1.8,0.7S30.1,38.3,30.1,39z"/>
	<path class="st3" d="M48,7.6"/>
	<path class="st3" d="M27.6,39"/>
	<line class="st3" x1="27.6" y1="39" x2="25.8" y2="37.2"/>
	<line class="st3" x1="29.3" y1="37.2" x2="27.6" y2="39"/>
</g>
<g>
	<g>
		<path class="st4" d="M27.4,42c3.2,0,3.2-5,0-5C24.2,37,24.2,42,27.4,42L27.4,42z"/>
	</g>
</g>
<g>
	<g>
		<path class="st4" d="M27.5,41.8c3.2,0,3.2-5,0-5C24.3,36.8,24.3,41.8,27.5,41.8L27.5,41.8z"/>
	</g>
</g>
<g>
	<g>
		<path class="st5" d="M52.4,26.5c0.2-0.9,0.2-1.7-0.1-2.5c-0.1-0.3-0.3-0.7-0.6-0.9c-0.2-0.3-0.7-1-0.3-0.1c0,0.4,0,0.9,0,1.3
			c-0.3,0.8-0.3,0.6,0.2,0c0.3-0.3,0.5-0.7,0.6-1.1c0.3-0.9,0.2-2-0.4-2.8c-0.6-0.8-1.6-1.2-2.6-1.1c-0.4,0.1-0.9,0.2-1.3,0.4
			c-0.1,0.1-0.2,0.2-0.3,0.2c-0.8,0.5-0.7,0.5,0.3,0c0.2,1.6,0.4,3.3,0.7,4.9c0.8-0.1,1.5-0.7,1.8-1.4c-1.5-0.2-3-0.4-4.6-0.6
			c0.1,0.4,0.3,0.8,0.5,1.2c0.9,1.5,3.4,1.7,4.3,0c0.7-1.4,0.7-2.9-0.6-3.9c-1-0.9-2.5-1-3.5,0c-2.2,2.3,0.3,5.1,1.8,6.9
			c1.8,2.1,3.7,4.1,6,5.7c2.7,1.8,5.2-2.5,2.5-4.3c-1.3-0.9-2.4-2-3.5-3.2c-0.5-0.6-1-1.1-1.5-1.7c-0.2-0.3-1.2-1.2-1.3-1.5
			c-0.2,0.6-0.5,1.2-0.7,1.8c0.1-0.1,0.1-0.1,0.2-0.2c-1.2,0-2.4,0-3.5,0c-0.1-0.2-0.2-0.3-0.3-0.5c0.1-0.6,0.2-1.3,0.3-1.9
			c-0.1,0.1-0.1,0.2-0.2,0.3c1.4,0,2.9,0,4.3,0c0,0,0,0,0,0c-0.5-1.9-3.7-2.6-4.6-0.6c0,0.1-0.1,0.2-0.1,0.2c0.5-0.4,1-0.8,1.5-1.1
			c-0.1,0-0.2,0-0.2,0c-1.2,0.2-1.9,1.6-1.8,2.7c0.2,1.3,1.2,2,2.5,2.2c0.6,0.1,1.1,0,1.6-0.3c0.2-0.1,1.3-0.7,0.7-0.5
			c-0.4,0-0.9,0-1.3,0c0.1,0,0.2,0.1,0.3,0.1c-0.6-0.6-1.2-1.2-1.7-1.7c0,0.1,0.1,0.2,0.1,0.3c0-0.4,0-0.9,0-1.3
			c0.3-1,0.1-0.4-0.2,0c-0.4,0.5-0.7,1.1-0.8,1.7c-0.1,0.6,0,1.1,0.3,1.7c0.2,0.3,0.8,0.8,0.8,1.1c0-0.4,0-0.9,0-1.3
			c0,0.1-0.1,0.3-0.1,0.4C46.8,28.2,51.6,29.6,52.4,26.5L52.4,26.5z"/>
	</g>
</g>
</svg>
